<svg width="900" height="220" viewBox="0 0 900 220" fill="none" xmlns="http://www.w3.org/2000/svg">
  <rect width="900" height="220" fill="#FAFBFC" rx="12"/>
  <text x="450" y="28" text-anchor="middle" font-family="system-ui,sans-serif" font-size="14" fill="#341291" font-weight="600">openDesk Edu Icon Set</text>
  <g transform="translate(25, 45)">
    <rect width="111" height="111" rx="20" fill="white" stroke="#E5E7EB"/>
    <path d="M55 24 L22 40 L55 56 L88 40Z" fill="#341291"/><path d="M22 44 L55 60 L55 88 L22 72Z" fill="#571EFA"/><path d="M88 44 L55 60 L55 88 L88 72Z" fill="#341291"/>
    <text x="55" y="135" text-anchor="middle" font-family="system-ui,sans-serif" font-size="11" fill="#6B7280">ILIAS</text>
  </g>
  <g transform="translate(160, 45)">
    <rect width="111" height="111" rx="20" fill="white" stroke="#E5E7EB"/>
    <path d="M24 70 V42 L55 26 L86 42 V70 L55 86Z" fill="#341291"/><path d="M55 26 V86 M24 42 L86 42 M24 56 L86 56" stroke="#571EFA" stroke-width="3"/>
    <text x="55" y="135" text-anchor="middle" font-family="system-ui,sans-serif" font-size="11" fill="#6B7280">Moodle</text>
  </g>
  <g transform="translate(295, 45)">
    <rect width="111" height="111" rx="20" fill="white" stroke="#E5E7EB"/>
    <path d="M20 30 H90 V70 H20Z" fill="#341291"/><path d="M26 36 H84 V64 H26Z" fill="#571EFA"/><path d="M46 44 L66 50 L46 56Z" fill="white"/>
    <text x="55" y="135" text-anchor="middle" font-family="system-ui,sans-serif" font-size="11" fill="#6B7280">BBB</text>
  </g>
  <g transform="translate(430, 45)">
    <rect width="111" height="111" rx="20" fill="white" stroke="#E5E7EB"/>
    <path d="M22 42 H64 V86 H22Z" fill="#341291"/><path d="M46 42 H88 V86 H46Z" fill="#571EFA"/><path d="M22 42 H88 L64 26Z" fill="#571EFA"/>
    <text x="55" y="135" text-anchor="middle" font-family="system-ui,sans-serif" font-size="11" fill="#6B7280">OpenCloud</text>
  </g>
  <g transform="translate(565, 45)">
    <rect width="111" height="111" rx="20" fill="white" stroke="#E5E7EB"/>
    <path d="M30 40 H80 V80 H30Z" fill="#341291"/><path d="M30 40 H80 L55 58Z" fill="#571EFA"/><path d="M56 28 H82 V44 H56Z" fill="#571EFA"/>
    <text x="55" y="135" text-anchor="middle" font-family="system-ui,sans-serif" font-size="11" fill="#6B7280">SOGo</text>
  </g>
  <g transform="translate(700, 45)">
    <rect width="111" height="111" rx="20" fill="white" stroke="#E5E7EB"/>
    <path d="M24 28 H42 V82 H24Z" fill="#341291"/><path d="M46 28 H64 V82 H46Z" fill="#571EFA"/><path d="M68 28 H86 V82 H68Z" fill="#341291"/>
    <text x="55" y="135" text-anchor="middle" font-family="system-ui,sans-serif" font-size="11" fill="#6B7280">Planka</text>
  </g>
</svg>
