<svg width="1200" height="400" viewBox="0 0 1200 400" fill="none" xmlns="http://www.w3.org/2000/svg">
  <rect width="1200" height="400" fill="#341291"/>
  <rect x="80" y="80" width="80" height="80" rx="16" fill="#571EFA"/>
  <path d="M120 100 L80 118 L120 136 L160 118Z" fill="#341291"/>
  <path d="M80 118 L120 136 V160 H80Z" fill="white" opacity="0.3"/>
  <text x="260" y="130" fill="white" font-family="system-ui,sans-serif" font-size="56" font-weight="bold">openDesk Edu</text>
  <text x="260" y="170" fill="#DDD6FE" font-family="system-ui,sans-serif" font-size="22">Educational Services for Universities</text>
  <rect x="260" y="210" width="80" height="80" rx="14" fill="white"/>
  <path d="M300 230 L270 244 L300 258 L330 244Z" fill="#341291"/>
  <path d="M270 248 L300 262 L300 290 L270 276Z" fill="#571EFA"/>
  <rect x="380" y="210" width="80" height="80" rx="14" fill="white"/>
  <path d="M400 230 H440 V270 H400Z" fill="#341291"/>
  <path d="M400 230 H440 L420 246Z" fill="#571EFA"/>
  <rect x="500" y="210" width="80" height="80" rx="14" fill="white"/>
  <path d="M510 224 H570 V264 H510Z" fill="#341291"/>
  <path d="M516 230 H564 V258 H516Z" fill="#571EFA"/>
  <path d="M536 244 L556 252 L536 260Z" fill="white"/>
  <rect x="620" y="210" width="80" height="80" rx="14" fill="white"/>
  <path d="M640 230 H680 V270 H640Z" fill="#341291"/>
  <path d="M640 230 H680 L660 246Z" fill="#571EFA"/>
  <rect x="260" y="330" width="110" height="30" rx="15" fill="#571EFA"/>
  <text x="315" y="350" fill="white" font-family="system-ui,sans-serif" font-size="12" text-anchor="middle">Keycloak SSO</text>
  <rect x="390" y="330" width="110" height="30" rx="15" fill="#571EFA"/>
  <text x="445" y="350" fill="white" font-family="system-ui,sans-serif" font-size="12" text-anchor="middle">13 Services</text>
  <rect x="520" y="330" width="110" height="30" rx="15" fill="#571EFA"/>
  <text x="575" y="350" fill="white" font-family="system-ui,sans-serif" font-size="12" text-anchor="middle">Kubernetes</text>
  <rect x="650" y="330" width="130" height="30" rx="15" fill="#571EFA"/>
  <text x="715" y="350" fill="white" font-family="system-ui,sans-serif" font-size="12" text-anchor="middle">One-Click Deploy</text>
</svg>
